<svg width="256" height="256" viewBox="0 0 256 256" xmlns="http://www.w3.org/2000/svg">
  <defs>
    <!-- Wood pattern -->
    <pattern id="wood-texture" patternUnits="userSpaceOnUse" width="64" height="32">
      <rect width="64" height="32" fill="#5c3a21" />
      <line x1="0" y1="32" x2="64" y2="32" stroke="#2e1d10" stroke-width="4" />
      <line x1="16" y1="0" x2="16" y2="32" stroke="#2e1d10" stroke-width="2" opacity="0.6" />
      <line x1="48" y1="0" x2="48" y2="32" stroke="#2e1d10" stroke-width="2" opacity="0.6" />
      <path d="M 0,8 Q 32,12 64,8 M 0,20 Q 32,16 64,20" fill="none" stroke="#4a2e1b" stroke-width="1.5" />
    </pattern>
    
    <linearGradient id="gold-grad" x1="0%" y1="0%" x2="100%" y2="100%">
      <stop offset="0%" stop-color="#fff5a8" />
      <stop offset="35%" stop-color="#d4af37" />
      <stop offset="85%" stop-color="#b68925" />
      <stop offset="100%" stop-color="#735515" />
    </linearGradient>
    <filter id="shadow">
      <feDropShadow dx="2" dy="4" stdDeviation="4" flood-color="#000" flood-opacity="0.6" />
    </filter>
  </defs>

  <!-- Wooden Badge Background -->
  <circle cx="128" cy="128" r="116" fill="url(#wood-texture)" stroke="#2e1d10" stroke-width="8" filter="url(#shadow)" />
  
  <!-- Outer metallic ring (rivets) -->
  <circle cx="128" cy="128" r="102" fill="none" stroke="#2e1d10" stroke-width="4" opacity="0.8"/>
  <circle cx="128" cy="26" r="6" fill="#888" />
  <circle cx="128" cy="230" r="6" fill="#888" />
  <circle cx="26" cy="128" r="6" fill="#888" />
  <circle cx="230" cy="128" r="6" fill="#888" />
  <circle cx="56" cy="56" r="6" fill="#888" />
  <circle cx="200" cy="200" r="6" fill="#888" />
  <circle cx="200" cy="56" r="6" fill="#888" />
  <circle cx="56" cy="200" r="6" fill="#888" />

  <!-- 6-Point Sheriff Star -->
  <g transform="translate(128,128) scale(1.05)" filter="url(#shadow)">
    <!-- First Triangle -->
    <polygon points="0,-75 65,37 -65,37" fill="url(#gold-grad)" stroke="#2e1d10" stroke-width="3" stroke-linejoin="round" />
    <!-- Second Triangle -->
    <polygon points="0,75 65,-37 -65,-37" fill="url(#gold-grad)" stroke="#2e1d10" stroke-width="3" stroke-linejoin="round" />
  </g>

  <!-- Inner circles -->
  <circle cx="128" cy="128" r="45" fill="none" stroke="#2e1d10" stroke-width="3" opacity="0.8"/>
  <circle cx="128" cy="128" r="52" fill="none" stroke="#2e1d10" stroke-width="1" opacity="0.5"/>
  
  <!-- "MD" text in the center -->
  <text x="128" y="146" font-family="Courier, serif" font-weight="900" font-size="52" text-anchor="middle" fill="#2e1d10" letter-spacing="1">MD</text>

</svg>