<svg xmlns="http://www.w3.org/2000/svg" viewBox="0 0 100 100">
<g fill="none" stroke-linecap="round" stroke-linejoin="round">
  <path d="M 61.1541438766307,12.000860417813357 Q 41.00117273476477,38.92842952595291 68.917697133121,64.1359589938329" stroke="#cdaf7c" stroke-width="0.4434694163147081" />
  <path d="M 43.753745574821636,12.383777555045626 Q 38.745518992144135,50.2142115241345 12.122877574709094,25.90701205493188" stroke="#b08d55" stroke-width="0.7506624867951179" />
  <path d="M 43.5615856769327,45.93672370270829 Q 41.12762832922651,64.77201283171736 70.70458937038138,22.77274531015121" stroke="#e0cdab" stroke-width="0.570125258258996" />
  <path d="M 22.438359984942522,86.57704577654249 Q 43.463781804505075,33.70983373520592 17.737310146677117,77.79954930779678" stroke="#cdaf7c" stroke-width="0.5322604336110066" />
  <path d="M 13.476035433847777,46.7539903737474 Q 34.99304651412837,66.8918148811264 16.304015846276656,33.45426251256743" stroke="#b08d55" stroke-width="0.709259876182123" />
  <path d="M 78.93655202486218,56.18817162054096 Q 58.182873448596936,31.83297534622649 28.23186205212375,33.15103708816857" stroke="#d9c59a" stroke-width="0.8276588605075734" />
  <path d="M 79.31869334042158,40.41009800313329 Q 48.13641209473742,63.364417065630015 23.012327772486785,38.421656018201716" stroke="#b08d55" stroke-width="0.5334889110245566" />
  <path d="M 84.93236701699952,61.84283081972748 Q 54.36524022667953,36.84554592792388 68.33014383602793,23.07219950095427" stroke="#e0cdab" stroke-width="0.534973913392139" />
  <path d="M 84.03129436969742,65.05295667466505 Q 38.784606958810755,42.97130937661287 71.46508620738977,14.475035803942717" stroke="#9e7d4a" stroke-width="0.4160501219520189" />
  <path d="M 35.23624384472655,31.41927007805622 Q 38.439313743453056,67.71638857340218 80.10941011781351,35.17423046387823" stroke="#b08d55" stroke-width="0.6496156297461386" />
  <path d="M 80.7746523109362,61.428149616033934 Q 35.71486361768251,35.58521278102025 69.59911856732853,53.11818317338323" stroke="#b08d55" stroke-width="0.6922929951117702" />
  <path d="M 81.82583068819815,41.95204041123178 Q 38.77283036629133,69.90150425980441 50.76210349411716,17.272752973903508" stroke="#d9c59a" stroke-width="0.8305514548333329" />
  <path d="M 22.227305547860887,22.79856013779602 Q 57.21924853985308,53.85636122927895 40.781384933960005,57.67107426889025" stroke="#e0cdab" stroke-width="0.6645571725495685" />
  <path d="M 87.68627020908946,78.86237617875985 Q 30.459240877712787,58.828872774407785 64.53682952212598,52.95762643270361" stroke="#deb887" stroke-width="0.784299366328723" />
  <path d="M 37.21403784248362,33.48001029179409 Q 36.32631017378679,30.129812644069172 67.76736490479286,67.57445351087394" stroke="#cdaf7c" stroke-width="0.7809810995260323" />
  <path d="M 50.61453396834602,18.512865823816398 Q 55.0120077426567,63.666773926898685 50.61303055821074,25.91288814117864" stroke="#deb887" stroke-width="0.7812554000375757" />
  <path d="M 53.15032240957006,72.29011829044467 Q 51.214146887807104,30.02287584511774 35.93248456037385,11.558139390866586" stroke="#deb887" stroke-width="0.8393609389115921" />
  <path d="M 76.53324234889436,34.601130032212915 Q 32.3170066597675,65.12038396816162 85.75595562383953,16.852276165430304" stroke="#e0cdab" stroke-width="0.8080116267100443" />
  <path d="M 88.23875949418674,52.616493562361256 Q 35.03042046081765,56.3900329098947 85.74789437639927,23.21015671793021" stroke="#cdaf7c" stroke-width="0.8362165205426287" />
  <path d="M 43.851035216070954,26.943856435366563 Q 51.57184355117833,59.19724276359905 26.092085071175674,34.9373033040716" stroke="#b08d55" stroke-width="0.7249390288197268" />
  <path d="M 45.048006713160326,51.406067282847246 Q 34.84016783473063,38.98789348126229 37.046844971796425,57.064697476578665" stroke="#c4a977" stroke-width="0.6942200572051755" />
  <path d="M 10.575267118807481,66.62727572387632 Q 32.35495067505293,32.6960131244123 12.513036644241453,36.4342791264399" stroke="#cdaf7c" stroke-width="0.5190023171844976" />
  <path d="M 63.51822226370245,27.138944589635088 Q 35.292473949001,67.42056962322684 55.683447466022756,47.81368210494353" stroke="#9e7d4a" stroke-width="0.6364864714722969" />
  <path d="M 42.564796918874926,17.546063719350578 Q 56.359309980586524,44.17190266358215 42.888182083979046,79.10693986956827" stroke="#d9c59a" stroke-width="0.7366822736466507" />
  <path d="M 88.73321690927729,17.873429692156712 Q 46.10485128409075,43.572104215798525 78.93380290822329,29.89250671362285" stroke="#c4a977" stroke-width="0.6681428769551723" />
  <path d="M 21.214583767581956,24.679042862978662 Q 48.50512273603869,64.9794381628232 16.03079106994315,74.6417795785362" stroke="#9e7d4a" stroke-width="0.675162656224924" />
  <path d="M 14.047066361990503,89.94259747301813 Q 63.44110340319808,68.75985029139005 84.10935864065021,77.89565875314443" stroke="#c4a977" stroke-width="0.603207028976236" />
  <path d="M 48.50867343768316,79.17203152241724 Q 66.09771462042195,36.58548485606107 10.172430268114113,41.233740607025055" stroke="#9e7d4a" stroke-width="0.7925646783970608" />
  <path d="M 32.819938315753625,65.727320288013 Q 59.22021269661864,61.334461139371484 62.94970495605962,48.93371293234636" stroke="#c4a977" stroke-width="0.5483539127472821" />
  <path d="M 87.49674919753271,56.3344232653005 Q 51.68780805497097,59.919022415162566 14.573221832598648,56.7342075567177" stroke="#cdaf7c" stroke-width="0.8596935654160376" />
  <path d="M 52.49009082164331,14.550366378294761 Q 50.31313987973674,64.05370181376486 15.481706616303384,15.436869070060581" stroke="#9e7d4a" stroke-width="0.5176019475004656" />
  <path d="M 19.590929115769935,81.222985130355 Q 39.848613911544994,53.78076614133765 59.550520826568246,43.5379932268698" stroke="#cdaf7c" stroke-width="0.6826134619220448" />
  <path d="M 35.30958767813817,30.861255648290626 Q 56.789038990793166,42.56735451182304 31.249161002508306,20.470262570196518" stroke="#b08d55" stroke-width="0.5499985398993812" />
  <path d="M 35.29417570174832,70.14915939315216 Q 32.90172457972629,48.331420904743446 89.87635526835538,89.68771582840756" stroke="#d9c59a" stroke-width="0.6688172020508136" />
  <path d="M 50.470775523901224,20.596525629317384 Q 43.9603533985806,32.75165256240077 29.54275332065051,32.798991297332535" stroke="#e0cdab" stroke-width="0.8168724773199035" />
  <path d="M 66.28319400698967,58.93422125807601 Q 69.48932254526017,56.1590527084293 10.625848572172636,75.36833080923694" stroke="#deb887" stroke-width="0.8658780197180387" />
  <path d="M 18.28692015345692,80.25015719788738 Q 40.57863685948511,65.58850828022837 69.39333471847989,22.43583278199924" stroke="#deb887" stroke-width="0.702414913515112" />
  <path d="M 67.40897497110383,26.287784986196236 Q 55.36951835540319,40.55935606521638 49.08254817195012,82.42691928634586" stroke="#9e7d4a" stroke-width="0.42539944683126535" />
  <path d="M 60.742755784735536,76.34784714977754 Q 31.763470471962002,43.342261544203524 20.46557285613618,88.38383630630688" stroke="#c4a977" stroke-width="0.7706154541739654" />
  <path d="M 54.1344336901113,44.21495351845435 Q 30.386787984333598,33.00975440295068 80.64851146401143,82.31428572479145" stroke="#cdaf7c" stroke-width="0.4180140690304153" />
  <path d="M 39.53727876097534,54.20200773959981 Q 47.191468515230866,31.673154326754315 39.17212122618048,84.64704084165233" stroke="#9e7d4a" stroke-width="0.4199474390556091" />
  <path d="M 38.62473858003409,64.56533506484612 Q 56.67733642542172,44.14714538458473 54.79068153150958,79.97701788328729" stroke="#cdaf7c" stroke-width="0.7747388055717697" />
  <path d="M 84.06110580556452,28.938986578348693 Q 36.500070684017544,61.99548119627586 24.1641896256305,42.983552828303786" stroke="#c4a977" stroke-width="0.7682822358775411" />
  <path d="M 36.574837435714294,84.46527088386604 Q 62.089405557485556,64.56256113501118 74.85994532595112,31.344456767557762" stroke="#9e7d4a" stroke-width="0.7506390940699563" />
  <path d="M 40.60333780775474,13.097968613262914 Q 48.82760084343961,37.98291320103007 83.4761520983596,37.97267395567349" stroke="#9e7d4a" stroke-width="0.7976727495764309" />
  <path d="M 28.20763899262163,11.89315477611612 Q 37.725191533108344,43.13047804790826 79.14823536242291,87.35112832386889" stroke="#deb887" stroke-width="0.5755730645413761" />
  <path d="M 50.75245404224299,64.36144946882109 Q 63.74644653088323,43.24599472857628 12.20804280957087,80.16307292604482" stroke="#deb887" stroke-width="0.48928390808623184" />
  <path d="M 87.00274526092444,31.237309001837488 Q 34.336101888588445,47.38255034258577 68.28360485221634,35.0941851355993" stroke="#cdaf7c" stroke-width="0.892117924658295" />
  <path d="M 19.25166272234644,81.96037863289597 Q 37.60315098009184,31.775461348529245 44.884601236397785,51.59362788532683" stroke="#9e7d4a" stroke-width="0.669225998546396" />
  <path d="M 67.55439993158764,69.35600622715812 Q 56.82514017731998,44.56885887125057 15.597904890104815,63.13901479290179" stroke="#deb887" stroke-width="0.7115777049732046" />
  <path d="M 63.070998101243546,19.97002525314942 Q 66.00187340388365,50.28490016141077 63.35143232845837,36.09463238859199" stroke="#b08d55" stroke-width="0.5478276012629735" />
  <path d="M 20.183023924732257,43.63570670183266 Q 67.61454682920731,57.09271781090932 82.22444365860662,59.241193276110444" stroke="#deb887" stroke-width="0.6030375843790814" />
  <path d="M 76.6980135443246,34.3099959414683 Q 38.40730739530568,61.4303530991032 58.532925638381016,35.77993837892305" stroke="#e0cdab" stroke-width="0.6210798996524037" />
  <path d="M 27.096112079128023,47.8548948727461 Q 66.04723303313017,61.84099040507121 23.575311695844377,16.78364293800974" stroke="#cdaf7c" stroke-width="0.7319269181524994" />
  <path d="M 59.54086442899004,17.470976006045014 Q 68.079986498099,39.39474394106736 34.833557143593225,74.52503156610126" stroke="#c4a977" stroke-width="0.4122126938634132" />
  <path d="M 29.587403526268012,48.01090753750441 Q 63.98950778498928,32.91312916738276 43.155280879817546,60.3812304590171" stroke="#c4a977" stroke-width="0.7591729577494943" />
  <path d="M 40.7182773914201,41.97222903012302 Q 35.90285380365193,57.50489652322078 81.41278609690931,78.83524523380171" stroke="#d9c59a" stroke-width="0.7892102033836625" />
  <path d="M 27.507290944985556,74.32878849385145 Q 57.83647105632953,48.581995382970085 54.59246352267162,83.39760115643521" stroke="#d9c59a" stroke-width="0.6282309127350862" />
  <path d="M 74.11332813778115,63.40621860690825 Q 69.51569812265792,53.818092738776784 86.00316867545247,81.31407406483495" stroke="#cdaf7c" stroke-width="0.807503253665842" />
  <path d="M 81.36162370728145,44.13926054869244 Q 66.27418921824454,47.83654448306802 22.732632603439946,78.91959278266098" stroke="#e0cdab" stroke-width="0.5295957742325097" />
  <path d="M 29.779179000772764,61.0129149420925 Q 60.632547371886616,50.851992513119285 60.13987495854251,31.967795753403063" stroke="#d9c59a" stroke-width="0.7567724313055282" />
  <path d="M 28.759486241170826,36.867802929705114 Q 65.72107331161267,33.22310630630674 22.06645264104693,40.642823394507055" stroke="#c4a977" stroke-width="0.7532095708472761" />
  <path d="M 15.138308057110244,42.607949573326934 Q 51.70444562015661,46.63096936412624 26.54675116115282,43.611481421874046" stroke="#9e7d4a" stroke-width="0.6920397071021126" />
  <path d="M 65.64183891983745,78.53856258431475 Q 60.62378304472278,45.215241157108466 10.471686686719444,38.14070421374598" stroke="#9e7d4a" stroke-width="0.5949933240318594" />
  <path d="M 81.33132335748095,76.85829366387205 Q 51.528822704409265,59.38536243025431 73.98945367530142,81.82490779193562" stroke="#e0cdab" stroke-width="0.5097108173107181" />
  <path d="M 44.866878083730924,12.321985595737218 Q 43.445181747935294,57.16567540113399 42.345333531010965,23.203578496280706" stroke="#e0cdab" stroke-width="0.859770810334488" />
  <path d="M 88.45775820151385,52.72989036260035 Q 66.27715450347074,53.675711025116435 63.039980546892906,16.71579697296002" stroke="#e0cdab" stroke-width="0.46784974361528214" />
  <path d="M 46.93587552412094,14.0227706790902 Q 45.164154567525586,38.46641136845926 36.14766439050469,70.89837663152217" stroke="#e0cdab" stroke-width="0.539128307819403" />
  <path d="M 86.09632958884494,43.7251861406991 Q 63.39643659648485,48.81227344852188 69.92194088662805,14.166848659460442" stroke="#deb887" stroke-width="0.5121110828598741" />
  <path d="M 15.489469636221557,86.58284822210946 Q 31.610325501630662,31.241199955228485 29.78266429863016,77.13830770276785" stroke="#cdaf7c" stroke-width="0.4761911728923952" />
  <path d="M 20.0976779899365,63.55670756959285 Q 52.55878327720076,38.71858163626015 65.95719769969207,71.35184786849926" stroke="#c4a977" stroke-width="0.7029463462801557" />
  <path d="M 87.0987795280967,67.46857828768066 Q 61.111675447017305,36.55063240668797 34.88311356788799,56.294778600739484" stroke="#deb887" stroke-width="0.6878983642062071" />
  <path d="M 82.64209208379556,40.024556754025475 Q 67.65882394165239,37.93319108366861 57.367828899988176,76.44573070242546" stroke="#c4a977" stroke-width="0.4509506527229883" />
  <path d="M 71.79847079609792,78.0234591271037 Q 54.01646459267376,34.84220260269261 88.7075481211737,72.61082770888157" stroke="#deb887" stroke-width="0.6663726226552502" />
  <path d="M 62.921707254988476,15.51653892157124 Q 55.9017301622722,30.506086006634124 43.604699267346206,49.21613639923266" stroke="#e0cdab" stroke-width="0.8803937836072893" />
  <path d="M 60.84680848811567,76.29658488019666 Q 58.29234574824308,47.419485800307086 68.70362432107135,87.23789849904621" stroke="#deb887" stroke-width="0.7079561770267755" />
  <path d="M 83.56941255222137,71.97131602972597 Q 48.59495086538031,63.02938393683022 57.39796952509614,35.78436663848946" stroke="#c4a977" stroke-width="0.8153655094453017" />
  <path d="M 16.93303184445395,80.53049472022175 Q 39.75453756763824,48.58833866412927 58.82653633844165,40.319144330261125" stroke="#d9c59a" stroke-width="0.647153251807961" />
  <path d="M 36.001133431100754,49.003994591307546 Q 44.19299864704381,40.334096354347125 32.372679043006876,57.69240063499435" stroke="#deb887" stroke-width="0.677895513959792" />
  <path d="M 51.33018013719473,25.284513882167907 Q 39.6542420149072,46.25712498682077 54.414096926548865,29.225914889937243" stroke="#e0cdab" stroke-width="0.7229514498704761" />
  <path d="M 49.26570680628689,73.43462945058539 Q 33.722134022186864,38.8638560189012 65.34297242361615,34.49648241040707" stroke="#cdaf7c" stroke-width="0.5845102253305186" />
  <path d="M 54.27783640081997,37.5005915316962 Q 69.86525855837328,52.01553891026714 38.144842209133465,46.29962102825428" stroke="#deb887" stroke-width="0.5257018381004708" />
  <path d="M 19.652470780184466,25.40674347612139 Q 34.78218965020211,51.43455861534999 70.97516875872824,24.811987395012956" stroke="#c4a977" stroke-width="0.7693023267544754" />
  <path d="M 32.11997015749514,57.16695247686327 Q 60.408315814923306,53.87162962049207 88.44085043700105,76.61026906616543" stroke="#deb887" stroke-width="0.5137415817412774" />
  <path d="M 24.355323494832266,11.131869380485107 Q 51.36540357070653,40.97245307133069 87.94359448821903,54.26871734388867" stroke="#b08d55" stroke-width="0.8720448073978704" />
  <path d="M 61.0295724084742,70.2233740633003 Q 34.10350587151043,30.490616135020318 32.74714617097195,48.29713668851184" stroke="#deb887" stroke-width="0.4921818351950409" />
  <path d="M 14.110137374686225,85.28508774144827 Q 49.109167490627506,62.884625811977216 42.05659538015518,15.92657362045118" stroke="#b08d55" stroke-width="0.7432255091280083" />
  <path d="M 22.138160556076514,74.8913661020038 Q 67.96502569432124,33.407236335849205 29.85527641680929,54.64584276941028" stroke="#e0cdab" stroke-width="0.7031588256214814" />
  <path d="M 73.25926638747356,28.05497096520277 Q 50.90290140520871,48.02057859555017 45.41768032154627,78.8133332660944" stroke="#e0cdab" stroke-width="0.5526901221596803" />
  <path d="M 59.682185685771884,58.770472979610425 Q 59.6035722193818,67.90360801301512 26.62303246588411,26.88201562443144" stroke="#b08d55" stroke-width="0.44059373273349217" />
  <path d="M 29.18921421397539,54.15937964622073 Q 36.26130461772553,46.34070290640106 65.14969086278151,47.59299832061487" stroke="#d9c59a" stroke-width="0.5157381172780129" />
  <path d="M 66.55646639032267,66.23900464749738 Q 48.16125305628173,57.49539680284971 83.9128835586039,73.02624213173851" stroke="#b08d55" stroke-width="0.6948947946026289" />
  <path d="M 74.3124544225147,25.82553710051713 Q 34.59105209844183,38.992378010640955 21.919152086026337,31.250597731251215" stroke="#c4a977" stroke-width="0.4357049184279071" />
  <path d="M 23.273823137657974,34.6089450091386 Q 59.958308882784934,52.768281972763695 33.08884706446734,19.948292653976658" stroke="#b08d55" stroke-width="0.5520455952723834" />
  <path d="M 42.20068153302445,31.779695451541052 Q 51.599262503920556,47.51035454286392 57.84293296328829,81.15383114339629" stroke="#b08d55" stroke-width="0.56116079167915" />
  <path d="M 30.029432192960314,17.306150930478815 Q 68.47644408771347,63.43834455624725 56.015928737594436,86.06290222450819" stroke="#9e7d4a" stroke-width="0.7361407921516196" />
  <path d="M 31.56088207736431,13.21853385156929 Q 60.25075321650228,48.82003293006534 62.12075915469491,83.2858230341414" stroke="#c4a977" stroke-width="0.8984727374662818" />
  <path d="M 44.870798966160244,75.13959556324826 Q 68.76220944262815,48.800415798414065 42.66784747440123,35.68466047652572" stroke="#d9c59a" stroke-width="0.8288665472001764" />
  <path d="M 36.38429308631723,65.4938939186746 Q 41.528711814458234,67.80774158252842 75.08528277903781,54.00772871774264" stroke="#e0cdab" stroke-width="0.4440298963878943" />
  <path d="M 30.191908075376617,19.27372811447663 Q 60.90191704159231,64.59642336207517 75.99417626149608,10.092085395848976" stroke="#9e7d4a" stroke-width="0.6712967971785975" />
  <path d="M 43.059805663945724,25.00660331156217 Q 44.47117436606701,60.25772616222295 60.032699371600714,70.79924288488135" stroke="#c4a977" stroke-width="0.5335281191364663" />
  <path d="M 20.48105831603572,33.04233159906631 Q 65.23386469431222,49.388471877999926 12.309555395333057,60.40178216032484" stroke="#9e7d4a" stroke-width="0.5196487311638252" />
  <path d="M 22.67025310441859,54.067120560213596 Q 52.090056362149326,33.7283680512609 89.38057115161757,83.03439027873344" stroke="#e0cdab" stroke-width="0.873530371179678" />
  <path d="M 61.816775102700696,22.317689954266243 Q 67.30612239736418,41.67446241047144 66.4329303940683,43.239227434828244" stroke="#e0cdab" stroke-width="0.8901223163016878" />
  <path d="M 29.498472486011067,54.10120615043758 Q 45.343440529885996,66.87472599726247 50.65927132743152,80.34610041171808" stroke="#9e7d4a" stroke-width="0.4349050398031153" />
  <path d="M 71.8140106141604,78.35299039777661 Q 43.595009724571824,61.508696230571765 31.373813045352385,10.205220748686173" stroke="#b08d55" stroke-width="0.5492779248858837" />
  <path d="M 56.95501779313289,89.9121866583471 Q 49.585613866228044,35.943816735311565 53.086446216309895,37.609915335440604" stroke="#cdaf7c" stroke-width="0.7814363388099896" />
  <path d="M 40.17680433711088,84.62818045722088 Q 64.78406732936274,69.23098525330377 29.104443533299946,40.63766791436818" stroke="#9e7d4a" stroke-width="0.7877722375496294" />
  <path d="M 13.491783927784155,69.57641212521567 Q 58.209115241000106,62.45635610259507 40.88630019927859,63.09510635876278" stroke="#9e7d4a" stroke-width="0.7260095007003029" />
  <path d="M 22.168425616817853,87.18595506967283 Q 35.04985079237555,68.61414360707414 36.5595763145091,18.029168173188186" stroke="#9e7d4a" stroke-width="0.6201531048853386" />
  <path d="M 52.07608694460491,46.55424595793938 Q 58.8977531028257,46.399144789854574 62.3825061142187,22.348897501723908" stroke="#e0cdab" stroke-width="0.7907626456365124" />
  <path d="M 31.201822363472715,59.86075204175984 Q 45.899332955430935,33.21261282317796 36.285247118676494,63.94859961232076" stroke="#cdaf7c" stroke-width="0.5900046987613276" />
  <path d="M 35.33289231467197,67.49739401783864 Q 60.37607237337454,64.89532069594145 12.871927987014928,15.473659774524116" stroke="#b08d55" stroke-width="0.7421997872029584" />
  <path d="M 32.99032032336349,28.1989024560251 Q 33.61517323075874,69.13350912882183 70.82957543954123,66.31126634632304" stroke="#d9c59a" stroke-width="0.6218392758308529" />
  <path d="M 65.52009302345877,82.27392496403888 Q 31.83963874708851,61.84573860648847 33.469422077216706,39.987287182025185" stroke="#c4a977" stroke-width="0.5220987160919842" />
  <path d="M 42.96413991804603,64.54402970821826 Q 37.20227544605244,37.00277420251618 58.75934295108294,40.60354388934991" stroke="#b08d55" stroke-width="0.5204148959281565" />
  <path d="M 83.02632128188438,21.449417610280772 Q 48.44599653419991,40.15909357654169 30.426136652732325,10.75179451638968" stroke="#9e7d4a" stroke-width="0.6326266277626508" />
  <path d="M 33.0105332598751,53.72785100816227 Q 32.954476011314924,67.80942539738584 89.01213561747771,33.93233992990177" stroke="#e0cdab" stroke-width="0.7451567562300645" />
  <path d="M 46.54686501342292,34.169733643065086 Q 69.97494262000717,64.13341834640744 18.532261393788872,40.50914381261032" stroke="#deb887" stroke-width="0.6874059650893225" />
  <path d="M 89.4153634901518,33.61846031066155 Q 69.1177793830745,56.32919263714723 31.958430414258217,55.274321356455914" stroke="#b08d55" stroke-width="0.7891558078850389" />
  <ellipse cx="59.472056336558495" cy="58.21233907437421" rx="32.3551646240191" ry="34.98516699019565" transform="rotate(325.05657064191917 59.472056336558495 58.21233907437421)" stroke="#9e7d4a" stroke-width="0.7994300597537993" />
  <ellipse cx="52.14129996328532" cy="47.04641911670633" rx="29.098536340176757" ry="28.626734893909124" transform="rotate(243.9952051044094 52.14129996328532 47.04641911670633)" stroke="#b08d55" stroke-width="0.7837353872477321" />
  <ellipse cx="53.61710188364046" cy="42.73558476988198" rx="12.914917894468537" ry="28.823743234501915" transform="rotate(14.192126625894259 53.61710188364046 42.73558476988198)" stroke="#9e7d4a" stroke-width="0.6204115950814058" />
  <ellipse cx="51.59147610736805" cy="54.647195358784764" rx="12.704001272386568" ry="18.85331354887466" transform="rotate(269.0931113778137 51.59147610736805 54.647195358784764)" stroke="#c4a977" stroke-width="0.5003973973250382" />
  <ellipse cx="55.7302562206101" cy="57.52921193413281" rx="20.975725918453715" ry="25.053842867945203" transform="rotate(98.10984625645088 55.7302562206101 57.52921193413281)" stroke="#c4a977" stroke-width="0.5284850422816312" />
  <ellipse cx="56.49379625084815" cy="49.63695659747482" rx="34.194654813812996" ry="32.39678052151135" transform="rotate(121.93749136867906 56.49379625084815 49.63695659747482)" stroke="#d9c59a" stroke-width="0.6341656944263476" />
  <ellipse cx="41.50598721813515" cy="55.083029861226706" rx="16.76844087097211" ry="30.28971174155549" transform="rotate(242.78624290808443 41.50598721813515 55.083029861226706)" stroke="#e0cdab" stroke-width="0.8836348736500161" />
  <ellipse cx="56.091752880411235" cy="47.315500988111324" rx="33.72045905766812" ry="10.417559653027036" transform="rotate(193.16603097686126 56.091752880411235 47.315500988111324)" stroke="#e0cdab" stroke-width="0.5842928293080195" />
  <ellipse cx="54.98023207073521" cy="45.24322816499473" rx="21.43076497817426" ry="29.156478034025106" transform="rotate(133.7305107638582 54.98023207073521 45.24322816499473)" stroke="#b08d55" stroke-width="0.5169109511057917" />
  <ellipse cx="40.50049299292965" cy="57.68469690429704" rx="26.842221467496366" ry="37.45767726229478" transform="rotate(79.6921920266364 40.50049299292965 57.68469690429704)" stroke="#d9c59a" stroke-width="0.7177019611889696" />
  <ellipse cx="49.28535072645361" cy="54.02154330941888" rx="29.477183388537732" ry="13.500278101811634" transform="rotate(16.32485196481756 49.28535072645361 54.02154330941888)" stroke="#d9c59a" stroke-width="0.5521822921780026" />
  <ellipse cx="49.85249237956412" cy="41.943839972436436" rx="36.61777925585507" ry="14.069921461190095" transform="rotate(163.31175248000133 49.85249237956412 41.943839972436436)" stroke="#b08d55" stroke-width="0.8746903842059528" />
  <ellipse cx="53.929679832752655" cy="50.8038499085794" rx="27.620210366458224" ry="31.797974516717247" transform="rotate(318.7489622038486 53.929679832752655 50.8038499085794)" stroke="#b08d55" stroke-width="0.44951081735526427" />
  <ellipse cx="49.78694075579229" cy="48.16231771395401" rx="38.545645761431786" ry="10.981488605651407" transform="rotate(133.39078514439674 49.78694075579229 48.16231771395401)" stroke="#e0cdab" stroke-width="0.6223479298895418" />
  <ellipse cx="44.72225276461992" cy="47.25372077515045" rx="39.427831549722015" ry="21.020048754915415" transform="rotate(324.6106364728757 44.72225276461992 47.25372077515045)" stroke="#b08d55" stroke-width="0.5793369206061589" />
  <ellipse cx="47.96279285488746" cy="43.79617124322159" rx="13.664791572617911" ry="35.440995653910434" transform="rotate(163.69825268538617 47.96279285488746 43.79617124322159)" stroke="#b08d55" stroke-width="0.5060529077116567" />
  <ellipse cx="52.789858370594075" cy="59.421866241299725" rx="11.51735531988619" ry="20.00527469297548" transform="rotate(355.97552541891184 52.789858370594075 59.421866241299725)" stroke="#9e7d4a" stroke-width="0.6822889879539817" />
  <ellipse cx="41.372203056487116" cy="55.30314751777169" rx="16.214721110399754" ry="16.478540557560244" transform="rotate(313.0903536370361 41.372203056487116 55.30314751777169)" stroke="#deb887" stroke-width="0.7871842889024101" />
  <ellipse cx="55.77287508555219" cy="51.9196327034884" rx="18.31824537927049" ry="39.52084395543217" transform="rotate(355.509829571822 55.77287508555219 51.9196327034884)" stroke="#cdaf7c" stroke-width="0.5253270983640619" />
  <ellipse cx="43.489942418027866" cy="53.221152851946336" rx="10.77340449358595" ry="10.445809816921265" transform="rotate(284.3944791245114 43.489942418027866 53.221152851946336)" stroke="#c4a977" stroke-width="0.6944264610252211" />
  <ellipse cx="40.31562167022321" cy="45.30735016649947" rx="13.802756311383408" ry="22.628816707302377" transform="rotate(40.91375044315678 40.31562167022321 45.30735016649947)" stroke="#d9c59a" stroke-width="0.6381229827116252" />
  <ellipse cx="55.56034078628406" cy="50.264759152183835" rx="13.271620300115366" ry="25.11516069357464" transform="rotate(340.34963146923826 55.56034078628406 50.264759152183835)" stroke="#d9c59a" stroke-width="0.7636214985818677" />
  <ellipse cx="58.1750337581308" cy="53.17806147358584" rx="19.048909870842664" ry="29.30022052616466" transform="rotate(11.21423022372381 58.1750337581308 53.17806147358584)" stroke="#e0cdab" stroke-width="0.8236492715836214" />
  <ellipse cx="48.525472385599834" cy="42.159236593584545" rx="31.37203944691289" ry="23.30686988089026" transform="rotate(323.7360354444725 48.525472385599834 42.159236593584545)" stroke="#deb887" stroke-width="0.70414871181672" />
  <ellipse cx="41.31364466640228" cy="45.50031999115906" rx="28.992301729030466" ry="26.450693021450817" transform="rotate(117.06675959472047 41.31364466640228 45.50031999115906)" stroke="#cdaf7c" stroke-width="0.6652784187156623" />
  <ellipse cx="49.07430835150943" cy="52.10853583070626" rx="12.97535385037126" ry="31.053382556381987" transform="rotate(307.00538542640703 49.07430835150943 52.10853583070626)" stroke="#b08d55" stroke-width="0.838853106532107" />
  <ellipse cx="51.026704567795974" cy="57.30984631404624" rx="22.90209824999159" ry="36.64273065965479" transform="rotate(148.97288562368882 51.026704567795974 57.30984631404624)" stroke="#9e7d4a" stroke-width="0.6267494514537237" />
  <ellipse cx="48.319793005229904" cy="41.90171678551262" rx="22.80292018782874" ry="29.953235891809268" transform="rotate(134.74836843679327 48.319793005229904 41.90171678551262)" stroke="#c4a977" stroke-width="0.7434105177334884" />
  <ellipse cx="49.48535771178206" cy="41.82449576732097" rx="12.560930719948582" ry="22.956295556552206" transform="rotate(268.05202890907645 49.48535771178206 41.82449576732097)" stroke="#deb887" stroke-width="0.8058846426386962" />
  <ellipse cx="51.127414712307" cy="51.72930165478954" rx="26.847592419762172" ry="19.889379442486153" transform="rotate(44.00326272764134 51.127414712307 51.72930165478954)" stroke="#deb887" stroke-width="0.8368036861171593" />
  <path d="M 36.64815671238341,57.01266665508694 L 30.902932825823534,60.147392714849985" stroke="#c4a977" stroke-width="0.6541824544404857" />
  <path d="M 36.510259479907205,55.06389284938942 L 28.807965750513368,50.635257099289404" stroke="#c4a977" stroke-width="0.6421664113457033" />
  <path d="M 59.80954239977588,64.20481051989995 L 63.678966156889054,54.78387414112532" stroke="#deb887" stroke-width="0.6108096318596814" />
  <path d="M 32.80862199469191,35.58421910995325 L 22.930737782765085,42.981473240682014" stroke="#cdaf7c" stroke-width="0.5972033904510387" />
  <path d="M 42.784924438805284,35.68063835923995 L 40.18598628834536,40.11255771409341" stroke="#9e7d4a" stroke-width="0.6824222271910165" />
  <path d="M 29.489255919159703,64.5744823527435 L 29.202490016979628,63.41536608669908" stroke="#deb887" stroke-width="0.46467068960132407" />
  <path d="M 51.11116752209943,36.06555699327757 L 43.32896296611804,39.62991485194826" stroke="#cdaf7c" stroke-width="0.5459898260092753" />
  <path d="M 72.2312711086791,20.812532168825808 L 69.83542002298383,24.88595743647908" stroke="#cdaf7c" stroke-width="0.5676170703024138" />
  <path d="M 65.12433545707178,36.87504542236621 L 63.06575894201772,41.715871969855115" stroke="#e0cdab" stroke-width="0.4056224609756937" />
  <path d="M 31.056368502718236,41.452907635845904 L 40.38036232338076,34.89037124740729" stroke="#cdaf7c" stroke-width="0.5380290705681425" />
  <path d="M 67.06490369721709,37.56674221107132 L 65.79913928858164,29.68400487898304" stroke="#e0cdab" stroke-width="0.5766613864908736" />
  <path d="M 52.15662887005684,40.61900271733997 L 48.36212010677407,37.40926834030925" stroke="#deb887" stroke-width="0.6337353605809793" />
  <path d="M 46.755776166171756,55.73619349590646 L 48.34513796030155,59.35886306220314" stroke="#cdaf7c" stroke-width="0.5928975492014699" />
  <path d="M 44.798725745265635,32.25383916251116 L 40.29219909498882,23.377281566772723" stroke="#cdaf7c" stroke-width="0.4222571968519863" />
  <path d="M 81.97640343104813,60.35075495740163 L 82.11775977772723,59.604988135947075" stroke="#cdaf7c" stroke-width="0.686269443016837" />
  <path d="M 69.28839942507165,50.40941013508616 L 62.739577653798946,45.36428460705184" stroke="#e0cdab" stroke-width="0.6972958067940662" />
  <path d="M 52.16616978531571,59.8824865690407 L 49.44412897902997,68.24122235137992" stroke="#e0cdab" stroke-width="0.5226308191741961" />
  <path d="M 35.45304321572776,58.809727614469054 L 41.23758184700105,61.75583475385519" stroke="#d9c59a" stroke-width="0.49890722653531866" />
  <path d="M 55.21668911765621,39.79077842513641 L 50.25660481697928,46.82210362482449" stroke="#cdaf7c" stroke-width="0.6619838986181616" />
  <path d="M 35.0025832454501,57.446556312777766 L 27.831150857136453,54.44297206349465" stroke="#b08d55" stroke-width="0.6095439888435643" />
  <path d="M 40.27621859018243,58.553710533641734 L 49.036262581497645,54.74534828196095" stroke="#e0cdab" stroke-width="0.5930479790083958" />
  <path d="M 34.56288988282256,16.501438769031132 L 38.61950732593097,25.443611257418755" stroke="#b08d55" stroke-width="0.6737343956374973" />
  <path d="M 31.62128914891596,75.93081563042601 L 31.775083403408885,76.72623079869943" stroke="#b08d55" stroke-width="0.6651046496477684" />
  </g>
</svg>